<?xml version="1.0" encoding="UTF-8" standalone="no"?>
<!-- Created with Inkscape (http://www.inkscape.org/) -->

<svg
   xmlns:dc="http://purl.org/dc/elements/1.1/"
   xmlns:cc="http://creativecommons.org/ns#"
   xmlns:rdf="http://www.w3.org/1999/02/22-rdf-syntax-ns#"
   xmlns:svg="http://www.w3.org/2000/svg"
   xmlns="http://www.w3.org/2000/svg"
   xmlns:sodipodi="http://sodipodi.sourceforge.net/DTD/sodipodi-0.dtd"
   xmlns:inkscape="http://www.inkscape.org/namespaces/inkscape"
   width="64px"
   height="64px"
   id="svg3535"
   version="1.1"
   inkscape:version="0.48.4 r9939"
   sodipodi:docname="New document 1">
  <defs
     id="defs3537" />
  <sodipodi:namedview
     id="base"
     pagecolor="#ffffff"
     bordercolor="#666666"
     borderopacity="1.0"
     inkscape:pageopacity="0.0"
     inkscape:pageshadow="2"
     inkscape:zoom="5.5"
     inkscape:cx="32"
     inkscape:cy="32"
     inkscape:current-layer="layer1"
     showgrid="true"
     inkscape:document-units="px"
     inkscape:grid-bbox="true"
     inkscape:window-width="1920"
     inkscape:window-height="1056"
     inkscape:window-x="1920"
     inkscape:window-y="24"
     inkscape:window-maximized="1" />
  <metadata
     id="metadata3540">
    <rdf:RDF>
      <cc:Work
         rdf:about="">
        <dc:format>image/svg+xml</dc:format>
        <dc:type
           rdf:resource="http://purl.org/dc/dcmitype/StillImage" />
        <dc:title></dc:title>
      </cc:Work>
    </rdf:RDF>
  </metadata>
  <g
     id="layer1"
     inkscape:label="Layer 1"
     inkscape:groupmode="layer">
    <g
       id="g3993">
      <path
         d="m 61.25,11.05 0,-0.55 Q 61.1,3.6499997 55.7,2.8499997 l -0.55,-0.1 -0.9,-0.1 -0.3,0 -43.9,0 q -7,0 -7.3,7.8500003 l 0,0.55 0,41.8 q 0,5.5 3.2,7.4 1.65,0.9 4.1,0.9 l 43.9,0 0.3,0 0.9,0 q 5.2,-0.55 6.05,-6.1 l 0.05,-2.2 0,-41.8 m 2.75,0.1 0,41.8 -0.05,2.45 0,0.2 q -1.3,8.4 -10,8.4 l -43.9,0 Q 6.8,64 4.7,62.7 l -0.1,0 Q 0,60.25 0,52.95 L 0,11.15 0,10.6 0,10.5 Q 0.4,-0.20000028 10.05,-2.8e-7 l 43.9,0 2.4,0.25 -0.2,0 Q 63.75,1.0999997 64,10.5 l 0,0.1 0,0.55"
         id="path60"
         inkscape:connector-curvature="0"
         style="fill:#886644;stroke:none" />
      <path
         d="m 61.25,11.05 0,41.8 -0.05,2.2 q -0.85,5.55 -6.05,6.1 l -0.9,0 -0.3,0 -43.9,0 q -2.45,0 -4.1,-0.9 -3.2,-1.9 -3.2,-7.4 l 0,-41.8 0,-0.55 q 0.3,-7.8500003 7.3,-7.8500003 l 43.9,0 0.3,0 0.9,0.1 0.55,0.1 q 5.4,0.8 5.55,7.6500003 l 0,0.55 M 45.2,7.1999997 l -8.35,0 -0.9,0 -9.6,0 -0.9,0 -10.35,0 -0.9,0 -1.95,0 1.95,1.95 0.9,0.9000003 10.35,10.35 0.9,0.9 5.2,5.2 -4.45,4.4 -0.75,-0.75 -0.9,-0.9 L 15.1,18.9 14.2,18 7.35,11.05 l 0,40.6 6.85,-6.85 0.9,-0.9 10.35,-10.35 0.9,-0.9 1.3,-1.2 4.35,-4.5 3.95,-3.9 0.9,-0.95 8.35,-8.3 0.9,-0.9 5.65,-5.7000003 -5.65,0 -0.9,0 M 55.15,50.1 l 1.55,1.55 0,-40.5 -1.55,1.55 -0.9,0.9 -8.15,8.15 -0.9,0.9 -8.35,8.35 -0.35,0.45 -4.5,4.4 -5.65,5.65 -0.9,0.9 -10.35,10.25 -0.9,0.9 -3.05,3.05 3.05,0 0.9,0 10.35,0 0.9,0 9.6,0 0.9,0 8.35,0 0.9,0 6.65,0 -6.65,-6.7 -0.9,-0.9 -8.35,-8.3 -0.9,-0.95 -3.4,-3.35 4.5,-4.4 8.15,8.15 0.9,0.9 8.15,8.15 0.9,0.9"
         id="path62"
         inkscape:connector-curvature="0"
         style="fill:#97714a;stroke:none" />
      <path
         d="m 55.15,50.1 0,-37.4 1.55,-1.55 0,40.5 -1.55,-1.55 m -18.3,-42.9000003 8.35,0 0,6.6000003 -8.35,8.3 0,-14.9000003 m 9.25,0 5.65,0 L 46.1,12.9 46.1,7.1999997 M 35.95,23.05 32,26.95 31.55,26.5 l -5.2,-5.2 0,-14.1000003 9.6,0 0,15.8500003 m -8.3,8.4 -1.3,1.2 0,-2.5 0.75,0.75 0.55,0.55 m -2.2,2.1 -10.35,10.35 0,-25 10.35,10.35 0,4.3 M 14.2,44.8 l -6.85,6.85 0,-40.6 6.85,6.95 0,26.8 M 25.45,20.4 15.1,10.05 l 0,-2.8500003 10.35,0 L 25.45,20.4 M 14.2,9.1499997 l -1.95,-1.95 1.95,0 0,1.95 M 54.25,49.2 46.1,41.05 l 0,-19.3 8.15,-8.15 0,35.6 M 45.2,40.15 37.05,32 l -0.2,-0.2 0,-0.8 8.35,-8.35 0,17.5 m -12.65,-3.75 3.4,3.35 0,16.85 -9.6,0 0,-15.1 5.65,-5.65 0.55,0.55 m 4.3,4.3 8.35,8.3 0,7.6 -8.35,0 0,-15.9 m 9.25,9.2 6.65,6.7 -6.65,0 0,-6.7 m -20.65,6.7 -10.35,0 0,-3.95 10.35,-10.25 0,14.2 m -11.25,0 -3.05,0 3.05,-3.05 0,3.05"
         id="path64"
         inkscape:connector-curvature="0"
         style="fill:#b7916a;stroke:none" />
      <path
         d="m 14.2,56.6 0,-3.05 0.9,-0.9 0,3.95 -0.9,0 m 31,-49.4000003 0.9,0 0,5.7000003 -0.9,0.9 0,-6.6000003 M 36.85,22.1 l -0.9,0.95 0,-15.8500003 0.9,0 0,14.9000003 m -10.5,10.55 -0.9,0.9 0,-4.3 0.9,0.9 0,2.5 M 15.1,43.9 l -0.9,0.9 0,-26.8 0.9,0.9 0,25 m 11.25,-22.6 -0.9,-0.9 0,-13.2000003 0.9,0 L 26.35,21.3 M 15.1,10.05 14.2,9.1499997 l 0,-1.95 0.9,0 0,2.8500003 m 40.05,40.05 -0.9,-0.9 0,-35.6 0.9,-0.9 0,37.4 m -9.05,-9.05 -0.9,-0.9 0,-17.5 0.9,-0.9 0,19.3 m -10.15,-1.3 0.9,0.95 0,15.9 -0.9,0 0,-16.85 m 9.25,9.25 0.9,0.9 0,6.7 -0.9,0 0,-7.6 m -18.85,7.6 -0.9,0 0,-14.2 0.9,-0.9 0,15.1"
         id="path66"
         inkscape:connector-curvature="0"
         style="fill:#aa8762;stroke:none" />
      <path
         d="m 36.5,31.45 0.35,-0.45 0,0.8 -0.35,-0.35"
         id="path68"
         inkscape:connector-curvature="0"
         style="fill:#bb8968;stroke:none" />
      <path
         d="m 36.5,31.45 0.35,0.35 0.2,0.2 -4.5,4.4 -0.55,-0.55 4.5,-4.4 M 32,26.95 27.65,31.45 27.1,30.9 31.55,26.5 32,26.95"
         id="path70"
         inkscape:connector-curvature="0"
         style="fill:#8e6a45;stroke:none" />
    </g>
    <g
       id="g3976"
       transform="matrix(1.0000125,0,0,1,57.636683,25.272727)">
      <path
         d="m -36.274212,9.7022727 q 0.65,-0.8 1.45,-1.45 l 0,-0.05 0.15,-0.15 q 1.5,-1.25 3.45,-2.1 5.3,-2.4 10.75,-0.3 l 2.2,1.1 1.35,0.9 0.05,0.05 q 0.85,0.6 1.55,1.4 l 0.05,0.7 -0.2,2.0000003 -0.15,0.8 q -0.55,1.15 -2.35,2.7 l -1.25,0.8 -2.1,1.2 q -2.15,0.9 -4.7,0.9 -2.45,0 -4.5,-0.85 -2.1,-0.85 -3.85,-2.6 l -1.45,-1.7 -0.05,-0.25 q -0.4,-1.4 -0.4,-3.0000003 l 0,-0.1"
         id="path386"
         inkscape:connector-curvature="0"
         style="fill:#f0cfb3;stroke:none" />
      <path
         d="m -36.274212,9.7022727 0,0.1 q 0,1.6000003 0.4,3.0000003 l 0.05,0.25 q -0.75,-1.1 -1.2,-2.3 l 0.1,-0.25 0.3,-0.35 0.05,-0.1 0.05,-0.1000003 0.25,-0.25 m 20.95,-0.6 0.15,0.15 0.1,0.1 0.15,0.15 0.25,0.3 -0.8,2.0000003 0.2,-2.0000003 -0.05,-0.7"
         id="path388"
         inkscape:connector-curvature="0"
         style="fill:#10719a;stroke:none" />
      <path
         d="m -14.674212,9.8022727 0.25,0.3000003 0.3,0.4 0.4,0.6 1,1.95 0.8,2.1 q 1.2,4.3 -0.5,8.6 -2.1,5.4 -7.4,7.75 -5.3,2.35 -10.75,0.3 -5.4,-2.1 -7.75,-7.4 -1.75,-3.9 -1.05,-7.9 0.25,-1.4 0.8,-2.8 l 0.85,-1.9 0.4,-0.7 0.3,-0.35 q 0.45,1.2 1.2,2.3 0.75,2.3 2.6,4.2 1.55,1.55 3.4,2.3 1.9,0.75 4.05,0.75 2.25,0 4.15,-0.8 1.8,-0.8 3.25,-2.25 2.05,-2.05 2.75,-4.65 l 0.15,-0.8 0.8,-2.0000003"
         id="path390"
         inkscape:connector-curvature="0"
         style="fill:#198ebf;stroke:none" />
      <path
         d="m -35.824212,13.052273 1.45,1.7 q 1.75,1.75 3.85,2.6 2.05,0.85 4.5,0.85 2.55,0 4.7,-0.9 l 2.1,-1.2 1.25,-0.8 q 1.8,-1.55 2.35,-2.7 -0.7,2.6 -2.75,4.65 -1.45,1.45 -3.25,2.25 -1.9,0.8 -4.15,0.8 -2.15,0 -4.05,-0.75 -1.85,-0.75 -3.4,-2.3 -1.85,-1.9 -2.6,-4.2"
         id="path392"
         inkscape:connector-curvature="0"
         style="fill:#ffdec2;stroke:none" />
      <path
         d="m -17.224212,-10.997727 q 1.1,0.75 2.1,1.7999997 4.4,4.35 4.4,10.5 0,2.6 -0.8,4.9 0,-10.4 -5.7,-17.1999997 m -22.2,17.6499997 q -0.95,-2.5 -0.95,-5.35 0,-6.15 4.35,-10.5 1.15,-1.1999997 2.5,-2.0499997 -6.05,6.9999997 -5.9,17.8999997 m 10.7,-6.09999997 q 0.5,1.64999997 0.5,3.79999997 0,2.8 -0.9,4.75 -0.85,2.0000003 -2.05,2.0000003 -1.25,0 -2.1,-2.0000003 -0.85,-1.95 -0.85,-4.75 l 0,-0.3 q 0.05,-2.6 0.85,-4.49999997 0.85,-1.95000003 2.1,-1.95000003 1.2,0 2.05,1.95000003 l 0.4,1 m 6.15,-1 q 0.9,-1.95000003 2.1,-1.95000003 1.25,0 2.1,1.95000003 l 0.35,1 q 0.5,1.64999997 0.5,3.79999997 0,2.8 -0.85,4.75 -0.85,2.0000003 -2.1,2.0000003 -1.2,0 -2.1,-2.0000003 -0.85,-1.95 -0.85,-4.75 l 0,-0.3 q 0.05,-2.6 0.85,-4.49999997"
         id="path394"
         inkscape:connector-curvature="0"
         style="fill:#3d3d3d;stroke:none" />
      <path
         d="m -22.574212,-0.44772727 q -0.8,1.89999997 -0.85,4.49999997 l 0,0.3 q 0,2.8 0.85,4.75 0.9,2.0000003 2.1,2.0000003 1.25,0 2.1,-2.0000003 0.85,-1.95 0.85,-4.75 0,-2.15 -0.5,-3.79999997 l -0.35,-1 q -0.85,-1.95000003 -2.1,-1.95000003 -1.2,0 -2.1,1.95000003 m 11.05,6.64999997 q -1.1,3.05 -3.6,5.5000003 -4.3,4.35 -10.45,4.35 -6.15,0 -10.45,-4.35 -2.3,-2.2500003 -3.4,-5.0500003 -0.15,-10.9 5.9,-17.8999997 3.5,-2.3 7.95,-2.3 4.55,0 8.1,2.4 l 0.25,0.15 q 5.7,6.7999997 5.7,17.1999997 m -17.2,-5.64999997 -0.4,-1 q -0.85,-1.95000003 -2.05,-1.95000003 -1.25,0 -2.1,1.95000003 -0.8,1.89999997 -0.85,4.49999997 l 0,0.3 q 0,2.8 0.85,4.75 0.85,2.0000003 2.1,2.0000003 1.2,0 2.05,-2.0000003 0.9,-1.95 0.9,-4.75 0,-2.15 -0.5,-3.79999997"
         id="path396"
         inkscape:connector-curvature="0"
         style="fill:#ffdec2;stroke:none" />
      <path
         d="m -23.174212,-21.147727 0.25,0.05 q 2.4,0 4.4,1.35 l 2.4,0.1 q 1.45,0.9 1.55,1.9 7.35,6.6 6.8,20.4999997 -1.25,-3.04999997 -5.6,-4.2 l -6.3,-1.5 q -2.1,-7.5999997 -3.5,-18.1999997 m -20.05,23.1499997 q -1.15,-13.1499997 6.2,-19.7499997 0.05,-1 1.5,-1.9 l 2.45,-0.1 q 2,-1.35 4.4,-1.35 l 0.2,-0.05 q -1.35,10.6 -3.35,18.5999997 l -5.25,1.1 q -3.35,0.85000003 -6.15,3.45"
         id="path398"
         inkscape:connector-curvature="0"
         style="fill:#ffcc00;stroke:none" />
      <path
         d="m -28.474212,-21.147727 q 0.85,-1.35 2.65,-1.35 1.8,0 2.65,1.35 1.4,10.6 3.5,18.1999997 l -12.15,0.4 q 2,-7.9999997 3.35,-18.5999997"
         id="path400"
         inkscape:connector-curvature="0"
         style="fill:#ffd52e;stroke:none" />
      <path
         d="m -7.774212,2.7522727 q 1.6,3.8 -4.65,5.2 2.2,-3.25 -1.8,-5.65 -4.05,-2.39999997 -11.1,-2.54999997 -7.05,-0.2 -11.2,2.44999997 -4.2,2.65 -2,6.35 -6.35,-2.8 -4.7,-6.55 2.8,-2.59999997 6.15,-3.45 l 5.25,-1.1 12.15,-0.4 6.3,1.5 q 4.35,1.15000003 5.6,4.2"
         id="path402"
         inkscape:connector-curvature="0"
         style="fill:#d9ad00;stroke:none" />
      <path
         d="m -12.674212,25.752273 -0.05,-0.05 q -1.6,-1.75 -2.35,-4.6 -0.75,-2.85 -0.25,-5.25 0.45,-2.35 1.9,-2.7 1.5,-0.4 3.1,1.35 1.55,1.85 2.3,4.7 0.7,2.6 0.4,4.65 l -1.05,-1.1 q -1,-0.7 -2.1,-0.4 -1.1,0.3 -1.65,1.4 -0.4,0.95 -0.25,2"
         id="path404"
         inkscape:connector-curvature="0"
         style="fill:#1680ad;stroke:none" />
      <path
         d="m -12.674212,25.752273 q -0.15,-1.05 0.25,-2 0.55,-1.1 1.65,-1.4 1.1,-0.3 2.1,0.4 l 1.05,1.1 0.05,0.15 0.3,0.85 q 0.35,1.3 -0.15,2.5 -0.5,1.15 -1.6,1.45 -1.1,0.3 -2.15,-0.45 -1.1,-0.75 -1.45,-2.05 l -0.05,-0.5 0,-0.05"
         id="path406"
         inkscape:connector-curvature="0"
         style="fill:#ffdec2;stroke:none" />
      <path
         d="m -43.824212,24.402273 0,-0.05 q -0.45,-2.35 0.3,-5.2 0.75,-2.85 2.3,-4.6 1.6,-1.85 3.05,-1.45 1.45,0.4 2,2.8 0.4,2.3 -0.35,5.15 -0.7,2.6 -2,4.25 0.05,-0.75 -0.3,-1.45 -0.55,-1.15 -1.65,-1.45 -1.1,-0.3 -2.1,0.45 -0.85,0.6 -1.25,1.55"
         id="path408"
         inkscape:connector-curvature="0"
         style="fill:#1680ad;stroke:none" />
      <path
         d="m -43.824212,24.402273 q 0.4,-0.95 1.25,-1.55 1,-0.75 2.1,-0.45 1.1,0.3 1.65,1.45 0.35,0.7 0.3,1.45 l 0,0.2 -0.15,0.85 q -0.4,1.35 -1.4,2.05 -1.05,0.75 -2.15,0.45 -1.1,-0.3 -1.6,-1.45 -0.55,-1.1 -0.15,-2.45 l 0.1,-0.45 0.05,-0.1"
         id="path410"
         inkscape:connector-curvature="0"
         style="fill:#ffdec2;stroke:none" />
      <path
         d="m -27.424212,34.102273 -2.95,0.35 -2.9,-0.4 q -1.2,-0.35 -1.2,-2.05 0,-1.7 1.2,-2.95 1.25,-1.2 2.95,-1.2 1.65,0 2.9,1.2 1.2,1.25 1.2,2.95 0,1.7 -1.2,2.1"
         id="path412"
         inkscape:connector-curvature="0"
         style="fill:#494949;stroke:none" />
      <path
         d="m -23.574212,35.552273 q -1.2,-0.35 -1.2,-2.05 0,-1.7 1.2,-2.95 1.25,-1.2 2.9,-1.2 1.7,0 2.95,1.2 1.2,1.25 1.2,2.95 0,1.7 -1.2,2.1 l -3,0.35 -2.85,-0.4"
         id="path414"
         inkscape:connector-curvature="0"
         style="fill:#494949;stroke:none" />
    </g>
  </g>
</svg>
