<?xml version="1.0" encoding="UTF-8" standalone="no"?>
<!-- Created with Inkscape (http://www.inkscape.org/) -->

<svg
   xmlns:dc="http://purl.org/dc/elements/1.1/"
   xmlns:cc="http://creativecommons.org/ns#"
   xmlns:rdf="http://www.w3.org/1999/02/22-rdf-syntax-ns#"
   xmlns:svg="http://www.w3.org/2000/svg"
   xmlns="http://www.w3.org/2000/svg"
   xmlns:sodipodi="http://sodipodi.sourceforge.net/DTD/sodipodi-0.dtd"
   xmlns:inkscape="http://www.inkscape.org/namespaces/inkscape"
   width="128"
   height="64"
   id="svg3535"
   version="1.1"
   inkscape:version="0.48.4 r9939"
   sodipodi:docname="blockmover_icon.svg">
  <defs
     id="defs3537" />
  <sodipodi:namedview
     id="base"
     pagecolor="#ffffff"
     bordercolor="#666666"
     borderopacity="1.0"
     inkscape:pageopacity="0.0"
     inkscape:pageshadow="2"
     inkscape:zoom="5.5"
     inkscape:cx="32"
     inkscape:cy="32"
     inkscape:current-layer="layer1"
     showgrid="true"
     inkscape:document-units="px"
     inkscape:grid-bbox="true"
     inkscape:window-width="1920"
     inkscape:window-height="1056"
     inkscape:window-x="1920"
     inkscape:window-y="24"
     inkscape:window-maximized="1" />
  <metadata
     id="metadata3540">
    <rdf:RDF>
      <cc:Work
         rdf:about="">
        <dc:format>image/svg+xml</dc:format>
        <dc:type
           rdf:resource="http://purl.org/dc/dcmitype/StillImage" />
        <dc:title></dc:title>
      </cc:Work>
    </rdf:RDF>
  </metadata>
  <g
     id="layer1"
     inkscape:label="Layer 1"
     inkscape:groupmode="layer">
    <g
       id="g3993"
       transform="translate(64,0)">
      <path
         d="m 61.25,11.05 0,-0.55 Q 61.1,3.6499997 55.7,2.8499997 l -0.55,-0.1 -0.9,-0.1 -0.3,0 -43.9,0 q -7,0 -7.3,7.8500003 l 0,0.55 0,41.8 q 0,5.5 3.2,7.4 1.65,0.9 4.1,0.9 l 43.9,0 0.3,0 0.9,0 q 5.2,-0.55 6.05,-6.1 l 0.05,-2.2 0,-41.8 m 2.75,0.1 0,41.8 -0.05,2.45 0,0.2 q -1.3,8.4 -10,8.4 l -43.9,0 Q 6.8,64 4.7,62.7 l -0.1,0 Q 0,60.25 0,52.95 L 0,11.15 0,10.6 0,10.5 Q 0.4,-0.20000028 10.05,-2.8e-7 l 43.9,0 2.4,0.25 -0.2,0 Q 63.75,1.0999997 64,10.5 l 0,0.1 0,0.55"
         id="path60"
         inkscape:connector-curvature="0"
         style="fill:#886644;stroke:none" />
      <path
         d="m 61.25,11.05 0,41.8 -0.05,2.2 q -0.85,5.55 -6.05,6.1 l -0.9,0 -0.3,0 -43.9,0 q -2.45,0 -4.1,-0.9 -3.2,-1.9 -3.2,-7.4 l 0,-41.8 0,-0.55 q 0.3,-7.8500003 7.3,-7.8500003 l 43.9,0 0.3,0 0.9,0.1 0.55,0.1 q 5.4,0.8 5.55,7.6500003 l 0,0.55 M 45.2,7.1999997 l -8.35,0 -0.9,0 -9.6,0 -0.9,0 -10.35,0 -0.9,0 -1.95,0 1.95,1.95 0.9,0.9000003 10.35,10.35 0.9,0.9 5.2,5.2 -4.45,4.4 -0.75,-0.75 -0.9,-0.9 L 15.1,18.9 14.2,18 7.35,11.05 l 0,40.6 6.85,-6.85 0.9,-0.9 10.35,-10.35 0.9,-0.9 1.3,-1.2 4.35,-4.5 3.95,-3.9 0.9,-0.95 8.35,-8.3 0.9,-0.9 5.65,-5.7000003 -5.65,0 -0.9,0 M 55.15,50.1 l 1.55,1.55 0,-40.5 -1.55,1.55 -0.9,0.9 -8.15,8.15 -0.9,0.9 -8.35,8.35 -0.35,0.45 -4.5,4.4 -5.65,5.65 -0.9,0.9 -10.35,10.25 -0.9,0.9 -3.05,3.05 3.05,0 0.9,0 10.35,0 0.9,0 9.6,0 0.9,0 8.35,0 0.9,0 6.65,0 -6.65,-6.7 -0.9,-0.9 -8.35,-8.3 -0.9,-0.95 -3.4,-3.35 4.5,-4.4 8.15,8.15 0.9,0.9 8.15,8.15 0.9,0.9"
         id="path62"
         inkscape:connector-curvature="0"
         style="fill:#97714a;stroke:none" />
      <path
         d="m 55.15,50.1 0,-37.4 1.55,-1.55 0,40.5 -1.55,-1.55 m -18.3,-42.9000003 8.35,0 0,6.6000003 -8.35,8.3 0,-14.9000003 m 9.25,0 5.65,0 L 46.1,12.9 46.1,7.1999997 M 35.95,23.05 32,26.95 31.55,26.5 l -5.2,-5.2 0,-14.1000003 9.6,0 0,15.8500003 m -8.3,8.4 -1.3,1.2 0,-2.5 0.75,0.75 0.55,0.55 m -2.2,2.1 -10.35,10.35 0,-25 10.35,10.35 0,4.3 M 14.2,44.8 l -6.85,6.85 0,-40.6 6.85,6.95 0,26.8 M 25.45,20.4 15.1,10.05 l 0,-2.8500003 10.35,0 L 25.45,20.4 M 14.2,9.1499997 l -1.95,-1.95 1.95,0 0,1.95 M 54.25,49.2 46.1,41.05 l 0,-19.3 8.15,-8.15 0,35.6 M 45.2,40.15 37.05,32 l -0.2,-0.2 0,-0.8 8.35,-8.35 0,17.5 m -12.65,-3.75 3.4,3.35 0,16.85 -9.6,0 0,-15.1 5.65,-5.65 0.55,0.55 m 4.3,4.3 8.35,8.3 0,7.6 -8.35,0 0,-15.9 m 9.25,9.2 6.65,6.7 -6.65,0 0,-6.7 m -20.65,6.7 -10.35,0 0,-3.95 10.35,-10.25 0,14.2 m -11.25,0 -3.05,0 3.05,-3.05 0,3.05"
         id="path64"
         inkscape:connector-curvature="0"
         style="fill:#b7916a;stroke:none" />
      <path
         d="m 14.2,56.6 0,-3.05 0.9,-0.9 0,3.95 -0.9,0 m 31,-49.4000003 0.9,0 0,5.7000003 -0.9,0.9 0,-6.6000003 M 36.85,22.1 l -0.9,0.95 0,-15.8500003 0.9,0 0,14.9000003 m -10.5,10.55 -0.9,0.9 0,-4.3 0.9,0.9 0,2.5 M 15.1,43.9 l -0.9,0.9 0,-26.8 0.9,0.9 0,25 m 11.25,-22.6 -0.9,-0.9 0,-13.2000003 0.9,0 L 26.35,21.3 M 15.1,10.05 14.2,9.1499997 l 0,-1.95 0.9,0 0,2.8500003 m 40.05,40.05 -0.9,-0.9 0,-35.6 0.9,-0.9 0,37.4 m -9.05,-9.05 -0.9,-0.9 0,-17.5 0.9,-0.9 0,19.3 m -10.15,-1.3 0.9,0.95 0,15.9 -0.9,0 0,-16.85 m 9.25,9.25 0.9,0.9 0,6.7 -0.9,0 0,-7.6 m -18.85,7.6 -0.9,0 0,-14.2 0.9,-0.9 0,15.1"
         id="path66"
         inkscape:connector-curvature="0"
         style="fill:#aa8762;stroke:none" />
      <path
         d="m 36.5,31.45 0.35,-0.45 0,0.8 -0.35,-0.35"
         id="path68"
         inkscape:connector-curvature="0"
         style="fill:#bb8968;stroke:none" />
      <path
         d="m 36.5,31.45 0.35,0.35 0.2,0.2 -4.5,4.4 -0.55,-0.55 4.5,-4.4 M 32,26.95 27.65,31.45 27.1,30.9 31.55,26.5 32,26.95"
         id="path70"
         inkscape:connector-curvature="0"
         style="fill:#8e6a45;stroke:none" />
    </g>
    <g
       id="g3044"
       transform="matrix(1.0000013,0,0,1,67.636408,-13.086932)">
      <path
         d="m -21.073647,70.919887 q -1.95,1 -4.85,1.95 l -4.95,1.35 q -2.15,0.4 -2.65,-1.15 -0.7,-1.65 1.05,-3.5 1.6,-1.95 4.55,-2.95 2.85,-1 5.25,-0.45 2.45,0.3 2.95,1.95 0.6,1.65 -1.35,2.8"
         id="path360"
         inkscape:connector-curvature="0"
         style="fill:#494949;stroke:none" />
      <path
         d="m -25.173647,50.819887 q 1,1.95 1.4,4.3 0.9,5.7 -2.55,10.4 -3.4,4.7 -9.15,5.6 -5.7,0.9 -10.4,-2.5 -4.7,-3.4 -5.6,-9.15 -0.7,-4.4 1.2,-8.25 l 1.2,-2 q 0.7,1.2 1.75,2.2 3.6,3.65 8.75,3.65 2.65,1.05 5.75,0.55 2.8,-0.45 4.9,-2 1.45,-1 2.6,-2.55 l 0.15,-0.25"
         id="path362"
         inkscape:connector-curvature="0"
         style="fill:#198ebf;stroke:none" />
      <path
         d="m -49.073647,49.219887 0.1,-0.15 q 1.3,-1.8 3,-3.1 l 0.05,0.15 q 0.7,4.55 4.4,7.3 l 0.2,0.15 q 1.3,0.95 2.75,1.5 -5.15,0 -8.75,-3.65 -1.05,-1 -1.75,-2.2"
         id="path364"
         inkscape:connector-curvature="0"
         style="fill:#10719a;stroke:none" />
      <path
         d="m -45.973647,45.969887 q 2.65,-1.95 6.15,-2.5 5.75,-0.9 10.45,2.5 l 1.85,1.65 0.3,0.25 -0.7,1.2 q -0.75,1.25 -1.9,2.35 -3.55,3.65 -8.7,3.65 l -0.05,0 q -1.45,-0.55 -2.75,-1.5 l -0.2,-0.15 q -3.7,-2.75 -4.4,-7.3 l -0.05,-0.15"
         id="path366"
         inkscape:connector-curvature="0"
         style="fill:#f0cfb3;stroke:none" />
      <path
         d="m -27.223647,47.869887 0.95,1.15 1.1,1.8 -0.15,0.25 q -1.15,1.55 -2.6,2.55 -2.1,1.55 -4.9,2 -3.1,0.5 -5.75,-0.55 l 0.05,0 q 5.15,0 8.7,-3.65 1.15,-1.1 1.9,-2.35 l 0.7,-1.2"
         id="path368"
         inkscape:connector-curvature="0"
         style="fill:#ffdec2;stroke:none" />
      <path
         d="m -44.823647,49.319887 q -1.9,-0.95 -3.55,-2.6 l -1.4,-1.7 -0.95,-1.55 12,-7.55 0.05,0.05 5,-3.2 q -6.55,4.4 -10.3,8 -5.2,4.95 -0.85,8.55 m 15.5,-17.45 q 1.15,0 1.95,1.85 0.8,1.85 0.8,4.45 0,2.65 -0.8,4.45 -0.8,1.85 -1.95,1.85 -1.15,0 -1.95,-1.85 -0.8,-1.8 -0.8,-4.45 0,-2.6 0.8,-4.45 0.8,-1.85 1.95,-1.85"
         id="path370"
         inkscape:connector-curvature="0"
         style="fill:#3d3d3d;stroke:none" />
      <path
         d="m -29.323647,31.869887 q -1.15,0 -1.95,1.85 -0.8,1.85 -0.8,4.45 0,2.65 0.8,4.45 0.8,1.85 1.95,1.85 1.15,0 1.95,-1.85 0.8,-1.8 0.8,-4.45 0,-2.6 -0.8,-4.45 -0.8,-1.85 -1.95,-1.85 m -4.35,0.9 5.6,-3.6 0.95,-0.6 q 2.7,3.55 2.7,8.25 0,5.8 -4.15,9.9 -4.1,4.1 -9.9,4.1 -3.5,0 -6.35,-1.5 -4.35,-3.6 0.85,-8.55 3.75,-3.6 10.3,-8"
         id="path372"
         inkscape:connector-curvature="0"
         style="fill:#ffdec2;stroke:none" />
      <path
         d="m -44.023647,63.069887 -0.3,-0.55 q -1.1,-2.25 -0.7,-5.25 0.4,-2.9 2.1,-4.85 1.7,-1.9 3.7,-1.6 2,0.25 3.2,2.5 1.1,2.35 0.7,5.25 -0.4,3 -2.1,4.85 l -0.05,0.1 q -0.1,-0.85 -0.65,-1.55 -0.85,-1.15 -2.25,-1.35 -1.35,-0.15 -2.45,0.7 -0.9,0.65 -1.2,1.75"
         id="path374"
         inkscape:connector-curvature="0"
         style="fill:#1680ad;stroke:none" />
      <path
         d="m -44.023647,63.069887 q 0.3,-1.1 1.2,-1.75 1.1,-0.85 2.45,-0.7 1.4,0.2 2.25,1.35 0.55,0.7 0.65,1.55 l 0,0.85 q -0.2,1.4 -1.3,2.25 -1.1,0.8 -2.5,0.6 -1.35,-0.15 -2.2,-1.25 -0.8,-1.05 -0.6,-2.45 l 0.05,-0.45"
         id="path376"
         inkscape:connector-curvature="0"
         style="fill:#ffdec2;stroke:none" />
      <path
         d="m -44.123647,74.119887 q -2.1,-0.7 -4.8,-2.15 -2.7,-1.4 -4.45,-2.7 -1.7,-1.25 -0.95,-2.75 0.8,-1.6 3.3,-1.6 2.5,-0.15 5.25,1.25 2.7,1.4 3.95,3.45 1.4,2.05 0.65,3.6 -0.75,1.55 -2.95,0.9"
         id="path378"
         inkscape:connector-curvature="0"
         style="fill:#494949;stroke:none" />
      <path
         d="m -21.323647,31.069887 -3.65,-4.65 q -1.7,-2.300001 -4.5,-4.800001 -2.85,-2.5 -6.9,-3.75 -4.1,-1.2 -11.95,1.5 -0.4,-0.6 1.95,-1.8 2.4,-1.2 4.95,-1.3 3.6,-0.2 6.25,0.7 l 0.75,0.3 3.85,1.65 q 2.85,1.25 5.15,4.35 l 3.2,4.750001 q 0.4,0.7 0.9,3.05"
         id="path380"
         inkscape:connector-curvature="0"
         style="fill:#ffd52e;stroke:none" />
      <path
         d="m -21.323647,31.069887 0.25,1.8 q -3.75,2.5 -8.45,3.85 -9.2,2.5 -14.45,5.9 -5.25,3.4 -9.85,3.65 l -0.4,-1.1 -1.2,-3.85 -0.15,-0.5 q -0.7,-2.6 -0.7,-7.1 -0.05,-3.75 2,-7.550001 l 1.5,-2.5 q 1.85,-2.7 4.45,-4.3 7.85,-2.7 11.95,-1.5 4.05,1.25 6.9,3.75 2.8,2.5 4.5,4.800001 l 3.65,4.65"
         id="path382"
         inkscape:connector-curvature="0"
         style="fill:#ffcc00;stroke:none" />
      <path
         d="m -21.323647,31.069887 q -0.5,-2.35 -0.9,-3.05 l 2.3,-1.25 q 2.6,-1.400001 4.15,-0.4 1.6,1 -0.1,2.75 -1.65,1.75 -4.5,3.3 l -0.7,0.45 -0.25,-1.8"
         id="path384"
         inkscape:connector-curvature="0"
         style="fill:#d9ad00;stroke:none" />
    </g>
  </g>
</svg>
